<svg width="64" height="64" viewBox="0 0 64 64" fill="none" xmlns="http://www.w3.org/2000/svg">
  <rect width="64" height="64" rx="20" fill="url(#paint0_linear_1_2)"/>
  <path d="M32 16C22.06 16 14 24.06 14 34C14 43.94 22.06 52 32 52C41.94 52 50 43.94 50 34C50 24.06 41.94 16 32 16Z" fill="white" fill-opacity="0.08"/>
  <path d="M22 31.5C22 25.701 26.701 21 32.5 21H35.5V25H32.5C28.91 25 26 27.91 26 31.5V32.5C26 36.09 28.91 39 32.5 39H37V43H32.5C26.701 43 22 38.299 22 32.5V31.5Z" fill="white"/>
  <path d="M42 21V36.5C42 40.09 39.09 43 35.5 43H30V39H35.5C37.433 39 39 37.433 39 35.5V21H42Z" fill="white"/>
  <defs>
    <linearGradient id="paint0_linear_1_2" x1="5" y1="5" x2="56" y2="60" gradientUnits="userSpaceOnUse">
      <stop stop-color="#B96844"/>
      <stop offset="1" stop-color="#173B36"/>
    </linearGradient>
  </defs>
</svg>
