<svg xmlns="http://www.w3.org/2000/svg" viewBox="0 0 900 1200" role="img" aria-labelledby="title desc">
  <title id="title">Gallery mountain placeholder</title>
  <desc id="desc">Suite panoramica in montagna.</desc>
  <defs>
    <linearGradient id="sky" x1="0" y1="0" x2="0" y2="1">
      <stop offset="0%" stop-color="#dbe6ee"/>
      <stop offset="100%" stop-color="#f7efe4"/>
    </linearGradient>
  </defs>
  <rect width="900" height="1200" fill="url(#sky)"/>
  <path d="M0 690 204 440l168 173 112-130 154 207 127-159 135 659H0Z" fill="#67828f"/>
  <path d="M0 812c122-40 217-36 349 15 103 40 184 51 275 40 79-10 143-33 276-97v420H0Z" fill="#274853"/>
  <rect x="158" y="670" width="584" height="310" rx="28" fill="#fff7ee"/>
  <rect x="210" y="716" width="220" height="160" rx="20" fill="#dfe9ea"/>
  <rect x="470" y="716" width="220" height="160" rx="20" fill="#d5b79d"/>
  <path d="M184 716h532" stroke="#8d6954" stroke-width="14" stroke-linecap="round"/>
  <text x="74" y="120" fill="#173b36" font-family="Fraunces, serif" font-size="62">Mountain Quiet</text>
</svg>
