<svg xmlns="http://www.w3.org/2000/svg" viewBox="0 0 900 1200" role="img" aria-labelledby="title desc">
  <title id="title">Gallery desert placeholder</title>
  <desc id="desc">Scena deserto con tenda premium e dune.</desc>
  <defs>
    <linearGradient id="sky" x1="0" y1="0" x2="0" y2="1">
      <stop offset="0%" stop-color="#f6d8b3"/>
      <stop offset="100%" stop-color="#fdf1df"/>
    </linearGradient>
    <linearGradient id="sand" x1="0" y1="0" x2="1" y2="1">
      <stop offset="0%" stop-color="#d9a46a"/>
      <stop offset="100%" stop-color="#bb7348"/>
    </linearGradient>
  </defs>
  <rect width="900" height="1200" fill="url(#sky)"/>
  <circle cx="672" cy="240" r="92" fill="#fff2cd"/>
  <path d="M0 658c160-100 274-124 449-73 103 30 184 29 284-11 59-24 112 11 129 63 11 35 13 73 11 563H0Z" fill="#f2cf96"/>
  <path d="M0 770c107-57 197-74 319-61 126 13 208 44 312 54 111 11 173-13 269-41v478H0Z" fill="url(#sand)"/>
  <path d="M345 536h214l78 97H267Z" fill="#7e4c38"/>
  <path d="M388 536h130v144H352V583Z" fill="#f3e6d4"/>
  <rect x="384" y="591" width="142" height="11" rx="5.5" fill="#7e4c38"/>
  <rect x="409" y="614" width="92" height="66" rx="14" fill="#c58b62"/>
  <text x="80" y="128" fill="#173b36" font-family="Fraunces, serif" font-size="62">Desert Stay</text>
</svg>
