<svg xmlns="http://www.w3.org/2000/svg" viewBox="0 0 1200 900" role="img" aria-labelledby="title desc">
  <title id="title">Gallery coast placeholder</title>
  <desc id="desc">Scena costiera con mare e architettura elegante.</desc>
  <defs>
    <linearGradient id="sky" x1="0" y1="0" x2="0" y2="1">
      <stop offset="0%" stop-color="#f7dcc2"/>
      <stop offset="100%" stop-color="#f9f0e4"/>
    </linearGradient>
    <linearGradient id="sea" x1="0" y1="0" x2="1" y2="1">
      <stop offset="0%" stop-color="#69a9bc"/>
      <stop offset="100%" stop-color="#28586b"/>
    </linearGradient>
  </defs>
  <rect width="1200" height="900" fill="url(#sky)"/>
  <rect y="430" width="1200" height="470" fill="url(#sea)"/>
  <path d="M0 500c111-44 207-64 329-57 137 8 174 44 293 47 148 4 208-45 356-60 90-10 147-7 222 17v453H0Z" fill="#5f8c8a" opacity=".42"/>
  <path d="M764 248h221c29 0 52 23 52 52v180H714V298c0-28 22-50 50-50Z" fill="#f3e5d6"/>
  <rect x="714" y="298" width="323" height="182" rx="24" fill="#fff7ee"/>
  <rect x="752" y="334" width="124" height="94" rx="18" fill="#e7c4a2"/>
  <rect x="897" y="334" width="101" height="94" rx="18" fill="#d7e2e2"/>
  <path d="M86 622c139-39 245-35 363 13 92 37 182 47 255 40 49-5 124-28 211-72 29-15 59 15 46 44-31 66-92 136-175 183-101 57-244 79-394 54-123-20-241-70-342-145-31-22-8-95 36-117Z" fill="#f6eddf"/>
  <text x="82" y="116" fill="#173b36" font-family="Fraunces, serif" font-size="66">Coastal Mood</text>
</svg>
