<svg xmlns="http://www.w3.org/2000/svg" viewBox="0 0 1200 900" role="img" aria-labelledby="title desc">
  <title id="title">Gallery city placeholder</title>
  <desc id="desc">Scena urbana con skyline contemporaneo.</desc>
  <defs>
    <linearGradient id="bg" x1="0" y1="0" x2="1" y2="1">
      <stop offset="0%" stop-color="#d6e3ea"/>
      <stop offset="100%" stop-color="#f5ede2"/>
    </linearGradient>
  </defs>
  <rect width="1200" height="900" fill="url(#bg)"/>
  <rect y="602" width="1200" height="298" fill="#1f4c5a"/>
  <g fill="#173b36">
    <rect x="92" y="298" width="120" height="304" rx="18"/>
    <rect x="240" y="192" width="146" height="410" rx="18"/>
    <rect x="418" y="260" width="108" height="342" rx="18"/>
    <rect x="554" y="139" width="164" height="463" rx="18"/>
    <rect x="744" y="238" width="128" height="364" rx="18"/>
    <rect x="900" y="326" width="120" height="276" rx="18"/>
  </g>
  <g fill="#f6caa6">
    <rect x="118" y="336" width="18" height="18" rx="5"/>
    <rect x="147" y="336" width="18" height="18" rx="5"/>
    <rect x="269" y="228" width="18" height="18" rx="5"/>
    <rect x="303" y="228" width="18" height="18" rx="5"/>
    <rect x="590" y="180" width="22" height="22" rx="6"/>
    <rect x="626" y="180" width="22" height="22" rx="6"/>
    <rect x="626" y="225" width="22" height="22" rx="6"/>
    <rect x="783" y="279" width="18" height="18" rx="5"/>
    <rect x="939" y="367" width="18" height="18" rx="5"/>
  </g>
  <text x="78" y="114" fill="#173b36" font-family="Fraunces, serif" font-size="66">Urban Frame</text>
</svg>
