<svg xmlns="http://www.w3.org/2000/svg" viewBox="0 0 1200 900" role="img" aria-labelledby="title desc">
  <title id="title">Gallery lodge placeholder</title>
  <desc id="desc">Lodge raffinato immerso nella natura.</desc>
  <defs>
    <linearGradient id="sky" x1="0" y1="0" x2="0" y2="1">
      <stop offset="0%" stop-color="#d7e5df"/>
      <stop offset="100%" stop-color="#f4ece1"/>
    </linearGradient>
  </defs>
  <rect width="1200" height="900" fill="url(#sky)"/>
  <path d="M0 558c119-75 220-95 351-68 79 17 157 56 246 59 97 3 173-34 255-68 128-53 247 3 348 77v342H0Z" fill="#4f7768"/>
  <path d="M0 645c147-39 241-25 387 30 117 43 242 50 365 24 94-20 196-64 448-54v255H0Z" fill="#2c514a"/>
  <path d="M418 392h360l88 100H330Z" fill="#6f4c3e"/>
  <rect x="371" y="492" width="454" height="208" rx="24" fill="#f3eadf"/>
  <rect x="438" y="542" width="138" height="102" rx="18" fill="#d8d9d2"/>
  <rect x="623" y="542" width="133" height="102" rx="18" fill="#c7a586"/>
  <path d="M507 392h182v56H507Z" fill="#8d6a55"/>
  <text x="78" y="116" fill="#173b36" font-family="Fraunces, serif" font-size="66">Lodge Escape</text>
</svg>
