<svg width="1200" height="900" viewBox="0 0 1200 900" fill="none" xmlns="http://www.w3.org/2000/svg">
  <rect width="1200" height="900" rx="48" fill="url(#paint0_linear_16_1)"/>
  <circle cx="886" cy="180" r="96" fill="#FFF0B8"/>
  <path d="M0 560C178 496 336 486 472 522C608 558 736 563 864 525C991 488 1103 490 1200 516V900H0V560Z" fill="#72D1CD"/>
  <path d="M0 668C144 628 292 620 444 650C596 679 752 684 894 655C1037 626 1139 632 1200 668V900H0V668Z" fill="#2B9CA3"/>
  <path d="M294 520C334 422 390 328 462 238" stroke="#173B36" stroke-width="16" stroke-linecap="round"/>
  <path d="M454 250C404 250 360 286 322 358" stroke="#173B36" stroke-width="16" stroke-linecap="round"/>
  <path d="M454 250C492 258 530 286 560 332" stroke="#173B36" stroke-width="16" stroke-linecap="round"/>
  <path d="M294 520H640" stroke="#F7E9D2" stroke-width="24" stroke-linecap="round"/>
  <text x="84" y="720" fill="#F8FFFE" font-family="Georgia, serif" font-size="92" letter-spacing="-2">
    Maldive slow luxury
  </text>
  <text x="86" y="782" fill="#E1FFFD" font-family="Arial, sans-serif" font-size="28" letter-spacing="4">
    PRIVACY, OCEANO, WELLNESS
  </text>
  <defs>
    <linearGradient id="paint0_linear_16_1" x1="96" y1="56" x2="1102" y2="842" gradientUnits="userSpaceOnUse">
      <stop stop-color="#C4F0D7"/>
      <stop offset="0.52" stop-color="#72CFC9"/>
      <stop offset="1" stop-color="#146D73"/>
    </linearGradient>
  </defs>
</svg>
